dummy_motion.mot
version=1
nRows=47
nColumns=11
inDegrees=No
endheader
                time	         pelvis_tilt	           pelvis_tx	           pelvis_ty	       hip_flexion_l	       hip_flexion_r	        knee_angle_l	        knee_angle_r	       ankle_angle_l	       ankle_angle_r	    lumbar_extension	
          0.00000000	          0.00000000	          0.00000000	          0.00000000	          0.22334890	         -0.17018184	         -0.27999657	         -0.08234183	         -0.37817777	         -0.22353420	          0.12699054	
          0.00200040	          0.00000000	          0.00000000	          0.00000000	          0.48992827	          0.75519692	         -0.80391427	         -0.82503045	          0.09042520	         -0.06586368	          0.07434854	
          0.00400080	          0.00000000	          0.00000000	          0.00000000	         -0.22943816	          0.12614501	         -0.13270360	         -0.58512854	         -0.24292309	          0.34895445	          0.45578429	
          0.00600120	          0.00000000	          0.00000000	          0.00000000	         -0.61610687	          0.47370757	         -0.71016367	         -0.37738828	          0.50736802	         -0.10074366	          0.03634373	
          0.00800160	          0.00000000	          0.00000000	          0.00000000	          0.38324917	          0.57912807	         -0.05376924	         -0.50847590	         -0.49523184	          0.21022943	          0.38043692	
          0.01000200	          0.00000000	          0.00000000	          0.00000000	         -0.78893676	         -0.59681128	         -1.15487200	         -0.73961013	          0.07267439	         -0.38282935	          0.30704476	
          0.01200240	          0.00000000	          0.00000000	          0.00000000	          0.00603387	          0.68245264	         -1.40617439	         -1.24857004	         -0.32122471	         -0.50417857	          0.29216080	
          0.01400280	          0.00000000	          0.00000000	          0.00000000	          0.76104251	         -0.22988496	         -1.42512661	         -0.14958289	          0.36327506	          0.43879965	         -0.17765173	
          0.01600320	          0.00000000	          0.00000000	          0.00000000	          0.56447195	          0.48790794	         -0.54299074	         -0.90200778	         -0.22445164	          0.47394703	         -0.00465841	
          0.01800360	          0.00000000	          0.00000000	          0.00000000	          0.56908333	         -0.52082533	         -0.85729605	         -1.42482582	          0.50411628	         -0.14732918	         -0.30334285	
          0.02000400	          0.00000000	          0.00000000	          0.00000000	          0.25928700	          0.17065213	         -0.20559408	         -0.97175684	          0.41970119	          0.29984465	         -0.51135097	
          0.02200440	          0.00000000	          0.00000000	          0.00000000	          0.01105328	         -0.07399523	         -0.93418947	         -0.74738422	         -0.28479654	          0.32829532	         -0.08436624	
          0.02400480	          0.00000000	          0.00000000	          0.00000000	         -0.07164109	          0.40841281	         -1.11587639	         -0.12883092	         -0.18747173	         -0.11092701	         -0.20861176	
          0.02600520	          0.00000000	          0.00000000	          0.00000000	          0.41550415	         -0.14035055	         -0.53298478	         -0.85025757	          0.29938865	         -0.48068367	          0.46068406	
          0.02800560	          0.00000000	          0.00000000	          0.00000000	         -0.41867542	         -0.75138126	         -0.05292429	         -1.50399442	          0.39158296	          0.03500619	          0.48492492	
          0.03000600	          0.00000000	          0.00000000	          0.00000000	          0.04734072	         -0.38961246	         -1.30196529	         -1.48111447	          0.05496327	         -0.01749609	         -0.15125966	
          0.03200640	          0.00000000	          0.00000000	          0.00000000	          0.55752879	         -0.16730840	         -0.61545919	         -0.49951719	         -0.19256332	          0.17579928	          0.13871623	
          0.03400680	          0.00000000	          0.00000000	          0.00000000	          0.71236357	         -0.22164576	         -0.91971013	         -0.10668937	          0.47270448	         -0.31177631	         -0.32351345	
          0.03600720	          0.00000000	          0.00000000	          0.00000000	          0.57218340	          0.41576376	         -0.11564870	         -1.07896228	          0.08210954	         -0.38696187	          0.37218286	
          0.03800760	          0.00000000	          0.00000000	          0.00000000	          0.10577717	          0.24679359	         -1.25302589	         -0.96298423	          0.49375333	         -0.06879977	         -0.16233108	
          0.04000800	          0.00000000	          0.00000000	          0.00000000	         -0.58999344	          0.11887178	         -1.30623355	         -0.90005942	         -0.46603693	          0.06214772	          0.40698562	
          0.04200840	          0.00000000	          0.00000000	          0.00000000	         -0.52353468	          0.55948787	         -1.04746121	         -1.11967611	          0.45212078	          0.04593963	         -0.50556756	
          0.04400880	          0.00000000	          0.00000000	          0.00000000	          0.73962029	         -0.24343320	         -0.23417296	         -0.81645662	         -0.08632920	         -0.50821710	         -0.43471924	
          0.04600920	          0.00000000	          0.00000000	          0.00000000	          0.15565780	         -0.47868313	         -0.68903560	         -0.84562169	          0.40603197	          0.40855788	          0.00062203	
          0.04800960	          0.00000000	          0.00000000	          0.00000000	         -0.66254289	          0.85686163	         -1.36769323	         -1.11495475	          0.32053788	          0.50745855	          0.37567356	
          0.05001000	          0.00000000	          0.00000000	          0.00000000	         -0.68678941	          0.81475773	         -0.74739834	         -0.43815310	         -0.19484860	          0.28490660	         -0.23596486	
          0.05201040	          0.00000000	          0.00000000	          0.00000000	          0.17760170	          0.84997995	         -0.61857843	         -0.57933133	          0.50988183	          0.01921994	          0.03539196	
          0.05401080	          0.00000000	          0.00000000	          0.00000000	          0.43170763	         -0.71446400	         -1.47213464	         -1.48915236	         -0.08603429	         -0.21087755	         -0.27045981	
          0.05601120	          0.00000000	          0.00000000	          0.00000000	          0.62500695	          0.73121819	         -1.29995386	         -0.29697198	         -0.22249222	         -0.03388769	          0.43549069	
          0.05801160	          0.00000000	          0.00000000	          0.00000000	         -0.25310850	          0.46996714	         -0.37139258	         -0.31528210	         -0.49914285	         -0.36716114	         -0.37273498	
          0.06001200	          0.00000000	          0.00000000	          0.00000000	         -0.21725836	         -0.48852762	         -0.76728314	         -1.09198072	         -0.40734217	         -0.04642539	          0.50459915	
          0.06201240	          0.00000000	          0.00000000	          0.00000000	          0.20670957	          0.58238832	         -0.90523198	         -0.40091059	          0.27517092	          0.47510326	         -0.17473497	
          0.06401280	          0.00000000	          0.00000000	          0.00000000	         -0.26754155	          0.15175739	         -1.19646457	         -1.22538285	          0.45614567	          0.48612339	          0.41859672	
          0.06601320	          0.00000000	          0.00000000	          0.00000000	          0.80502014	          0.22424204	         -0.87166356	         -0.86899828	         -0.06974963	          0.35176916	         -0.48318057	
          0.06801360	          0.00000000	          0.00000000	          0.00000000	          0.59690436	         -0.58347321	         -0.11924553	         -0.91333063	         -0.17277167	         -0.41454061	          0.25039823	
          0.07001400	          0.00000000	          0.00000000	          0.00000000	          0.73885527	         -0.57801860	         -1.53464687	         -0.34963706	          0.21414082	         -0.21441006	          0.40832292	
          0.07201440	          0.00000000	          0.00000000	          0.00000000	          0.52200767	         -0.78276591	         -1.03468039	         -1.15021133	          0.46492452	         -0.37738802	         -0.19817990	
          0.07401480	          0.00000000	          0.00000000	          0.00000000	         -0.15465664	         -0.11271419	         -0.28600098	         -0.07621114	          0.43496040	         -0.25509370	          0.27096888	
          0.07601520	          0.00000000	          0.00000000	          0.00000000	          0.15773133	          0.74183053	         -1.37092622	         -1.43858208	          0.00679707	          0.17335209	         -0.51051742	
          0.07801560	          0.00000000	          0.00000000	          0.00000000	         -0.63179372	         -0.60330625	         -1.20569221	         -0.77710526	         -0.18705760	         -0.51526834	          0.35616253	
          0.08001600	          0.00000000	          0.00000000	          0.00000000	          0.14527052	         -0.07307976	         -0.94283238	         -0.57084063	          0.41347484	          0.08053505	         -0.42676286	
          0.08201640	          0.00000000	          0.00000000	          0.00000000	         -0.21421972	         -0.35647003	         -0.89354824	         -1.40064299	          0.34536555	          0.06284775	          0.30390562	
          0.08401680	          0.00000000	          0.00000000	          0.00000000	         -0.76739968	          0.73931087	         -0.61492741	         -1.27617265	         -0.29375548	          0.09231243	         -0.05898959	
          0.08601720	          0.00000000	          0.00000000	          0.00000000	         -0.62670111	         -0.85202267	         -0.49256871	         -0.98718414	         -0.31068331	         -0.11101113	          0.05585604	
          0.08801760	          0.00000000	          0.00000000	          0.00000000	          0.81516595	         -0.44715653	         -0.04007698	         -0.97753342	         -0.26900010	          0.20112071	          0.34059137	
          0.09001800	          0.00000000	          0.00000000	          0.00000000	         -0.80621250	         -0.62384665	         -0.46139891	         -1.32291449	          0.18981172	         -0.39691980	         -0.35332798	
          0.09201840	          0.00000000	          0.00000000	          0.00000000	          0.11622368	         -0.83581214	         -0.20284368	         -1.21710054	          0.00638703	         -0.39410295	          0.25367063	
